REM DIRINDEX 1\2,1\3\5,1\3\6,1\4\7,1\4\8
REM DIRNAME cjc139,folder01,folder02,folder03,folder04,folder05,folder06,folder07
TITLE ""
FILE "EG_E3_03.mp3" MP3
  TRACK 01 AUDIO
    TITLE "0:"
    INDEX 01 00:00:00
  TRACK 02 AUDIO
    TITLE "5:cjc139_0973"
    INDEX 01 00:00:17
  TRACK 03 AUDIO
    TITLE "6:cjc139_0974"
    INDEX 01 00:02:12
  TRACK 04 AUDIO
    TITLE "5:cjc139_0975"
    INDEX 01 00:04:72
  TRACK 05 AUDIO
    TITLE "6:cjc139_0976"
    INDEX 01 00:07:31
  TRACK 06 AUDIO
    TITLE "5:cjc139_0977"
    INDEX 01 00:10:18
  TRACK 07 AUDIO
    TITLE "6:cjc139_0978"
    INDEX 01 00:12:20
  TRACK 08 AUDIO
    TITLE "5:cjc139_0979"
    INDEX 01 00:15:05
  TRACK 09 AUDIO
    TITLE "6:cjc139_0980"
    INDEX 01 00:17:16
  TRACK 10 AUDIO
    TITLE "5:cjc139_0981"
    INDEX 01 00:20:02
  TRACK 11 AUDIO
    TITLE "6:cjc139_0982"
    INDEX 01 00:22:68
  TRACK 12 AUDIO
    TITLE "5:cjc139_0983"
    INDEX 01 00:25:52
  TRACK 13 AUDIO
    TITLE "6:cjc139_0984"
    INDEX 01 00:28:39
  TRACK 14 AUDIO
    TITLE "5:cjc139_0985"
    INDEX 01 00:31:24
  TRACK 15 AUDIO
    TITLE "6:cjc139_0986"
    INDEX 01 00:34:00
  TRACK 16 AUDIO
    TITLE "5:cjc139_0987"
    INDEX 01 00:36:60
  TRACK 17 AUDIO
    TITLE "6:cjc139_0988"
    INDEX 01 00:38:63
  TRACK 18 AUDIO
    TITLE "5:cjc139_0989"
    INDEX 01 00:41:47
  TRACK 19 AUDIO
    TITLE "6:cjc139_0990"
    INDEX 01 00:44:01
  TRACK 20 AUDIO
    TITLE "5:cjc139_0991"
    INDEX 01 00:46:62
  TRACK 21 AUDIO
    TITLE "6:cjc139_0992"
    INDEX 01 00:48:71
  TRACK 22 AUDIO
    TITLE "5:cjc139_0993"
    INDEX 01 00:51:58
  TRACK 23 AUDIO
    TITLE "6:cjc139_0994"
    INDEX 01 00:54:05
  TRACK 24 AUDIO
    TITLE "5:cjc139_0995"
    INDEX 01 00:56:65
  TRACK 25 AUDIO
    TITLE "6:cjc139_0996"
    INDEX 01 00:59:12
  TRACK 26 AUDIO
    TITLE "5:cjc139_0997"
    INDEX 01 01:01:72
  TRACK 27 AUDIO
    TITLE "6:cjc139_0998"
    INDEX 01 01:04:15
  TRACK 28 AUDIO
    TITLE "5:cjc139_0999"
    INDEX 01 01:07:00
  TRACK 29 AUDIO
    TITLE "6:cjc139_1000"
    INDEX 01 01:09:24
  TRACK 30 AUDIO
    TITLE "5:cjc139_1001"
    INDEX 01 01:12:13
  TRACK 31 AUDIO
    TITLE "6:cjc139_1002"
    INDEX 01 01:13:44
  TRACK 32 AUDIO
    TITLE "5:cjc139_1003"
    INDEX 01 01:16:26
  TRACK 33 AUDIO
    TITLE "6:cjc139_1004"
    INDEX 01 01:19:21
  TRACK 34 AUDIO
    TITLE "5:cjc139_1005"
    INDEX 01 01:22:05
  TRACK 35 AUDIO
    TITLE "6:cjc139_1006"
    INDEX 01 01:24:67
  TRACK 36 AUDIO
    TITLE "5:cjc139_1007"
    INDEX 01 01:27:55
  TRACK 37 AUDIO
    TITLE "6:cjc139_1008"
    INDEX 01 01:30:52
  TRACK 38 AUDIO
    TITLE "5:cjc139_1009"
    INDEX 01 01:33:34
  TRACK 39 AUDIO
    TITLE "6:cjc139_1010"
    INDEX 01 01:36:01
  TRACK 40 AUDIO
    TITLE "5:cjc139_1011"
    INDEX 01 01:38:61
  TRACK 41 AUDIO
    TITLE "6:cjc139_1012"
    INDEX 01 01:41:20
  TRACK 42 AUDIO
    TITLE "5:cjc139_1013"
    INDEX 01 01:44:09
  TRACK 43 AUDIO
    TITLE "6:cjc139_1014"
    INDEX 01 01:46:37
  TRACK 44 AUDIO
    TITLE "5:cjc139_1015"
    INDEX 01 01:49:22
  TRACK 45 AUDIO
    TITLE "6:cjc139_1016"
    INDEX 01 01:51:62
  TRACK 46 AUDIO
    TITLE "5:cjc139_1017"
    INDEX 01 01:54:50
  TRACK 47 AUDIO
    TITLE "6:cjc139_1018"
    INDEX 01 01:57:08
  TRACK 48 AUDIO
    TITLE "5:cjc139_1019"
    INDEX 01 01:59:67
  TRACK 49 AUDIO
    TITLE "6:cjc139_1020"
    INDEX 01 02:02:48
  TRACK 50 AUDIO
    TITLE "5:cjc139_1021"
    INDEX 01 02:05:34
  TRACK 51 AUDIO
    TITLE "6:cjc139_1022"
    INDEX 01 02:08:13
  TRACK 52 AUDIO
    TITLE "5:cjc139_1023"
    INDEX 01 02:10:73
  TRACK 53 AUDIO
    TITLE "6:cjc139_1024"
    INDEX 01 02:13:26
  TRACK 54 AUDIO
    TITLE "5:cjc139_1025"
    INDEX 01 02:16:11
  TRACK 55 AUDIO
    TITLE "6:cjc139_1026"
    INDEX 01 02:18:41
  TRACK 56 AUDIO
    TITLE "5:cjc139_1027"
    INDEX 01 02:21:26
  TRACK 57 AUDIO
    TITLE "6:cjc139_1028"
    INDEX 01 02:23:34
  TRACK 58 AUDIO
    TITLE "5:cjc139_1029"
    INDEX 01 02:26:19
  TRACK 59 AUDIO
    TITLE "6:cjc139_1030"
    INDEX 01 02:28:69
  TRACK 60 AUDIO
    TITLE "5:cjc139_1031"
    INDEX 01 02:31:51
  TRACK 61 AUDIO
    TITLE "6:cjc139_1032"
    INDEX 01 02:34:60
  TRACK 62 AUDIO
    TITLE "0:"
    INDEX 01 02:37:52
